<svg width="143" height="144" viewBox="0 0 143 144" fill="none" xmlns="http://www.w3.org/2000/svg">
<path d="M22.0447 125.344C19.4311 126.6 16.7332 123.786 18.0986 121.227L37.945 84.0423C38.9059 82.2419 41.3451 81.9056 42.7573 83.3788L60.9014 102.306C62.3136 103.78 61.8745 106.202 60.0352 107.086L22.0447 125.344Z" fill="#EDF5EF"/>
<circle cx="79.9565" cy="63" r="63" fill="#EDF5EF"/>
<path d="M59.341 108.711C60.2857 110.708 62.6704 111.561 64.6674 110.616C66.6643 109.671 67.5172 107.286 66.5725 105.289L59.341 108.711ZM62.9567 16L31.5829 49.8972L76.6257 60.1191L62.9567 16ZM66.5725 105.289L55.5697 82.0329L48.3382 85.4542L59.341 108.711L66.5725 105.289ZM54.4295 71.6494L58.8904 51.9926L51.0887 50.2221L46.6279 69.8789L54.4295 71.6494ZM55.5697 82.0329C54.0387 78.7968 53.6372 75.1407 54.4295 71.6494L46.6279 69.8789C45.4394 75.1158 46.0416 80.6 48.3382 85.4542L55.5697 82.0329Z" fill="#97C99F"/>
<path d="M100.616 15.2894C99.6711 13.2924 97.2864 12.4395 95.2894 13.3842C93.2925 14.329 92.4396 16.7137 93.3843 18.7106L100.616 15.2894ZM97.0001 108L128.374 74.1028L83.3311 63.8809L97.0001 108ZM93.3843 18.7106L104.387 41.9671L111.619 38.5458L100.616 15.2894L93.3843 18.7106ZM105.527 52.3506L101.066 72.0074L108.868 73.7779L113.329 54.1211L105.527 52.3506ZM104.387 41.9671C105.918 45.2032 106.32 48.8593 105.527 52.3506L113.329 54.1211C114.517 48.8842 113.915 43.4 111.619 38.5458L104.387 41.9671Z" fill="#5D6B5F"/>
</svg>
